<?xml version="1.0" encoding="UTF-8"?>
<svg xmlns="http://www.w3.org/2000/svg" xmlns:xlink="http://www.w3.org/1999/xlink" width="18pt" height="17pt" viewBox="0 0 18 17" version="1.1">
<defs>
<radialGradient id="radial0" gradientUnits="userSpaceOnUse" cx="0.532355" cy="0.5" fx="0.532355" fy="0.5" r="1.347268" gradientTransform="matrix(13.299493,0,0,12.945488,2.374979,0)">
<stop offset="0" style="stop-color:rgb(40%,49.803922%,61.176471%);stop-opacity:1;"/>
<stop offset="1" style="stop-color:rgb(23.137255%,30.196078%,40.392157%);stop-opacity:1;"/>
</radialGradient>
</defs>
<g id="surface1">
<path style=" stroke:none;fill-rule:nonzero;fill:rgb(100%,100%,100%);fill-opacity:1;" d="M 0.933594 16.363281 C 1.15625 16.363281 1.335938 16.3125 1.46875 16.214844 C 1.597656 16.117188 1.664062 15.984375 1.664062 15.816406 C 1.664062 15.714844 1.640625 15.625 1.597656 15.546875 C 1.550781 15.472656 1.480469 15.402344 1.382812 15.34375 C 1.285156 15.285156 1.15625 15.230469 0.996094 15.1875 C 0.835938 15.140625 0.722656 15.09375 0.652344 15.042969 C 0.582031 14.992188 0.546875 14.933594 0.546875 14.859375 C 0.546875 14.773438 0.582031 14.703125 0.644531 14.65625 C 0.710938 14.609375 0.800781 14.582031 0.917969 14.582031 C 1.042969 14.582031 1.140625 14.613281 1.207031 14.671875 C 1.273438 14.730469 1.308594 14.8125 1.308594 14.917969 L 1.664062 14.917969 C 1.664062 14.800781 1.632812 14.695312 1.566406 14.601562 C 1.503906 14.507812 1.414062 14.433594 1.304688 14.382812 C 1.191406 14.332031 1.0625 14.304688 0.921875 14.304688 C 0.703125 14.304688 0.527344 14.359375 0.394531 14.460938 C 0.257812 14.566406 0.191406 14.699219 0.191406 14.859375 C 0.191406 15.046875 0.285156 15.195312 0.472656 15.308594 C 0.570312 15.367188 0.703125 15.421875 0.867188 15.472656 C 1.035156 15.519531 1.148438 15.566406 1.210938 15.617188 C 1.277344 15.664062 1.308594 15.730469 1.308594 15.820312 C 1.308594 15.898438 1.277344 15.964844 1.214844 16.015625 C 1.148438 16.0625 1.054688 16.089844 0.933594 16.089844 C 0.789062 16.089844 0.679688 16.058594 0.601562 15.996094 C 0.523438 15.933594 0.484375 15.84375 0.484375 15.730469 L 0.125 15.730469 C 0.125 15.855469 0.160156 15.964844 0.230469 16.0625 C 0.300781 16.15625 0.398438 16.230469 0.523438 16.28125 C 0.648438 16.335938 0.785156 16.363281 0.933594 16.363281 Z M 2.515625 16.335938 L 2.839844 15.3125 L 3.167969 16.335938 L 3.449219 16.335938 L 3.867188 14.847656 L 3.53125 14.847656 L 3.289062 15.875 L 2.972656 14.847656 L 2.710938 14.847656 L 2.398438 15.863281 L 2.152344 14.847656 L 1.816406 14.847656 L 2.234375 16.335938 Z M 4.292969 14.636719 C 4.355469 14.636719 4.402344 14.621094 4.433594 14.585938 C 4.46875 14.550781 4.484375 14.511719 4.484375 14.460938 C 4.484375 14.410156 4.46875 14.367188 4.433594 14.332031 C 4.402344 14.296875 4.355469 14.28125 4.292969 14.28125 C 4.230469 14.28125 4.179688 14.296875 4.148438 14.332031 C 4.113281 14.367188 4.097656 14.410156 4.097656 14.460938 C 4.097656 14.511719 4.113281 14.550781 4.148438 14.585938 C 4.179688 14.621094 4.230469 14.636719 4.292969 14.636719 Z M 4.460938 16.335938 L 4.460938 14.847656 L 4.121094 14.847656 L 4.121094 16.335938 Z M 5.414062 16.363281 C 5.597656 16.363281 5.746094 16.320312 5.859375 16.238281 C 5.976562 16.15625 6.03125 16.046875 6.03125 15.914062 C 6.03125 15.832031 6.011719 15.765625 5.976562 15.710938 C 5.9375 15.652344 5.882812 15.605469 5.804688 15.566406 C 5.726562 15.527344 5.621094 15.492188 5.488281 15.460938 C 5.351562 15.433594 5.261719 15.40625 5.21875 15.378906 C 5.175781 15.347656 5.152344 15.308594 5.152344 15.257812 C 5.152344 15.199219 5.175781 15.15625 5.222656 15.121094 C 5.273438 15.085938 5.332031 15.070312 5.40625 15.070312 C 5.488281 15.070312 5.554688 15.089844 5.601562 15.132812 C 5.652344 15.175781 5.675781 15.230469 5.675781 15.292969 L 6.019531 15.292969 C 6.019531 15.152344 5.964844 15.039062 5.851562 14.953125 C 5.738281 14.863281 5.589844 14.820312 5.40625 14.820312 C 5.238281 14.820312 5.09375 14.863281 4.984375 14.949219 C 4.871094 15.035156 4.816406 15.144531 4.816406 15.269531 C 4.816406 15.421875 4.902344 15.542969 5.074219 15.621094 C 5.152344 15.660156 5.25 15.6875 5.367188 15.710938 C 5.484375 15.734375 5.566406 15.765625 5.617188 15.792969 C 5.667969 15.828125 5.695312 15.871094 5.695312 15.929688 C 5.695312 15.984375 5.671875 16.027344 5.625 16.0625 C 5.574219 16.097656 5.507812 16.113281 5.417969 16.113281 C 5.324219 16.113281 5.25 16.089844 5.191406 16.046875 C 5.136719 16.007812 5.105469 15.945312 5.097656 15.867188 L 4.765625 15.867188 C 4.765625 15.957031 4.792969 16.039062 4.847656 16.117188 C 4.902344 16.191406 4.980469 16.253906 5.078125 16.296875 C 5.175781 16.339844 5.285156 16.363281 5.414062 16.363281 Z M 6.90625 16.363281 C 7.089844 16.363281 7.242188 16.320312 7.355469 16.238281 C 7.46875 16.15625 7.527344 16.046875 7.527344 15.914062 C 7.527344 15.832031 7.507812 15.765625 7.46875 15.710938 C 7.433594 15.652344 7.375 15.605469 7.296875 15.566406 C 7.222656 15.527344 7.117188 15.492188 6.980469 15.460938 C 6.847656 15.433594 6.757812 15.40625 6.710938 15.378906 C 6.667969 15.347656 6.648438 15.308594 6.648438 15.257812 C 6.648438 15.199219 6.671875 15.15625 6.71875 15.121094 C 6.765625 15.085938 6.828125 15.070312 6.902344 15.070312 C 6.984375 15.070312 7.046875 15.089844 7.097656 15.132812 C 7.144531 15.175781 7.171875 15.230469 7.171875 15.292969 L 7.515625 15.292969 C 7.515625 15.152344 7.457031 15.039062 7.34375 14.953125 C 7.234375 14.863281 7.085938 14.820312 6.902344 14.820312 C 6.730469 14.820312 6.589844 14.863281 6.476562 14.949219 C 6.367188 15.035156 6.3125 15.144531 6.3125 15.269531 C 6.3125 15.421875 6.398438 15.542969 6.570312 15.621094 C 6.648438 15.660156 6.746094 15.6875 6.859375 15.710938 C 6.976562 15.734375 7.0625 15.765625 7.113281 15.792969 C 7.164062 15.828125 7.1875 15.871094 7.1875 15.929688 C 7.1875 15.984375 7.164062 16.027344 7.117188 16.0625 C 7.070312 16.097656 7 16.113281 6.910156 16.113281 C 6.816406 16.113281 6.742188 16.089844 6.683594 16.046875 C 6.628906 16.007812 6.597656 15.945312 6.59375 15.867188 L 6.261719 15.867188 C 6.261719 15.957031 6.289062 16.039062 6.34375 16.117188 C 6.398438 16.191406 6.472656 16.253906 6.570312 16.296875 C 6.667969 16.339844 6.78125 16.363281 6.90625 16.363281 Z M 9.328125 16.335938 C 9.558594 16.335938 9.738281 16.285156 9.859375 16.183594 C 9.984375 16.082031 10.046875 15.9375 10.046875 15.75 C 10.046875 15.636719 10.015625 15.539062 9.957031 15.460938 C 9.894531 15.378906 9.808594 15.320312 9.699219 15.292969 C 9.796875 15.253906 9.871094 15.195312 9.921875 15.121094 C 9.972656 15.046875 10 14.964844 10 14.875 C 10 14.695312 9.9375 14.558594 9.816406 14.46875 C 9.695312 14.378906 9.515625 14.332031 9.285156 14.332031 L 8.578125 14.332031 L 8.578125 16.335938 Z M 9.285156 15.175781 L 8.9375 15.175781 L 8.9375 14.613281 L 9.285156 14.613281 C 9.40625 14.613281 9.496094 14.636719 9.554688 14.679688 C 9.613281 14.722656 9.640625 14.796875 9.640625 14.894531 C 9.640625 14.984375 9.609375 15.054688 9.546875 15.101562 C 9.484375 15.152344 9.398438 15.175781 9.285156 15.175781 Z M 9.332031 16.058594 L 8.9375 16.058594 L 8.9375 15.433594 L 9.363281 15.433594 C 9.582031 15.4375 9.691406 15.542969 9.691406 15.75 C 9.691406 15.847656 9.660156 15.921875 9.597656 15.976562 C 9.535156 16.03125 9.445312 16.058594 9.332031 16.058594 Z M 10.84375 16.363281 C 11.003906 16.363281 11.136719 16.308594 11.246094 16.195312 C 11.257812 16.261719 11.269531 16.308594 11.285156 16.335938 L 11.636719 16.335938 L 11.636719 16.3125 C 11.597656 16.230469 11.578125 16.125 11.578125 15.992188 L 11.578125 15.320312 C 11.574219 15.160156 11.519531 15.039062 11.414062 14.949219 C 11.308594 14.863281 11.164062 14.820312 10.988281 14.820312 C 10.867188 14.820312 10.761719 14.839844 10.664062 14.878906 C 10.570312 14.921875 10.496094 14.976562 10.4375 15.046875 C 10.382812 15.117188 10.355469 15.195312 10.355469 15.277344 L 10.699219 15.277344 C 10.699219 15.21875 10.722656 15.167969 10.773438 15.128906 C 10.824219 15.09375 10.886719 15.074219 10.964844 15.074219 C 11.058594 15.074219 11.125 15.097656 11.167969 15.144531 C 11.210938 15.191406 11.234375 15.253906 11.234375 15.328125 L 11.234375 15.425781 L 11.023438 15.425781 C 10.800781 15.425781 10.625 15.46875 10.503906 15.554688 C 10.382812 15.636719 10.324219 15.761719 10.324219 15.917969 C 10.324219 16.042969 10.371094 16.148438 10.46875 16.234375 C 10.566406 16.320312 10.691406 16.363281 10.84375 16.363281 Z M 10.90625 16.09375 C 10.835938 16.09375 10.777344 16.074219 10.730469 16.039062 C 10.6875 16 10.667969 15.949219 10.667969 15.882812 C 10.667969 15.804688 10.699219 15.746094 10.761719 15.703125 C 10.828125 15.660156 10.921875 15.636719 11.050781 15.636719 L 11.234375 15.636719 L 11.234375 15.917969 C 11.203125 15.972656 11.160156 16.015625 11.101562 16.046875 C 11.039062 16.078125 10.976562 16.09375 10.90625 16.09375 Z M 12.570312 16.363281 C 12.679688 16.363281 12.785156 16.339844 12.878906 16.292969 C 12.972656 16.246094 13.050781 16.183594 13.105469 16.101562 C 13.160156 16.023438 13.191406 15.9375 13.195312 15.84375 L 12.871094 15.84375 C 12.867188 15.914062 12.835938 15.976562 12.78125 16.023438 C 12.722656 16.070312 12.652344 16.097656 12.566406 16.097656 C 12.453125 16.097656 12.367188 16.058594 12.304688 15.976562 C 12.246094 15.898438 12.21875 15.777344 12.21875 15.617188 L 12.21875 15.5625 C 12.21875 15.402344 12.25 15.285156 12.308594 15.207031 C 12.371094 15.128906 12.457031 15.085938 12.566406 15.085938 C 12.652344 15.085938 12.726562 15.117188 12.78125 15.171875 C 12.835938 15.226562 12.867188 15.296875 12.871094 15.378906 L 13.195312 15.378906 C 13.1875 15.210938 13.128906 15.078125 13.011719 14.972656 C 12.898438 14.871094 12.75 14.820312 12.570312 14.820312 C 12.355469 14.820312 12.183594 14.886719 12.058594 15.023438 C 11.9375 15.160156 11.875 15.339844 11.875 15.566406 L 11.875 15.601562 C 11.875 15.839844 11.9375 16.027344 12.0625 16.160156 C 12.1875 16.296875 12.355469 16.363281 12.570312 16.363281 Z M 13.796875 16.335938 L 13.796875 15.851562 L 13.949219 15.699219 L 14.40625 16.335938 L 14.800781 16.335938 L 14.171875 15.46875 L 14.742188 14.847656 L 14.328125 14.847656 L 13.90625 15.3125 L 13.796875 15.441406 L 13.796875 14.222656 L 13.453125 14.222656 L 13.453125 16.335938 Z M 15.460938 16.363281 C 15.648438 16.363281 15.789062 16.304688 15.890625 16.191406 L 15.898438 16.335938 L 16.222656 16.335938 L 16.222656 14.847656 L 15.878906 14.847656 L 15.878906 15.917969 C 15.820312 16.03125 15.710938 16.089844 15.542969 16.089844 C 15.378906 16.089844 15.300781 15.996094 15.300781 15.808594 L 15.300781 14.847656 L 14.957031 14.847656 L 14.957031 15.8125 C 14.957031 15.992188 15 16.125 15.085938 16.222656 C 15.171875 16.316406 15.296875 16.363281 15.460938 16.363281 Z M 16.914062 16.910156 L 16.914062 16.203125 C 17.015625 16.308594 17.152344 16.363281 17.320312 16.363281 C 17.5 16.363281 17.644531 16.292969 17.75 16.15625 C 17.859375 16.019531 17.914062 15.835938 17.914062 15.605469 L 17.914062 15.585938 C 17.914062 15.34375 17.859375 15.15625 17.753906 15.023438 C 17.648438 14.886719 17.5 14.820312 17.316406 14.820312 C 17.140625 14.820312 17.003906 14.878906 16.902344 15 L 16.890625 14.847656 L 16.574219 14.847656 L 16.574219 16.910156 Z M 17.222656 16.097656 C 17.078125 16.097656 16.976562 16.039062 16.914062 15.921875 L 16.914062 15.261719 C 16.976562 15.148438 17.078125 15.09375 17.21875 15.09375 C 17.332031 15.09375 17.417969 15.136719 17.480469 15.222656 C 17.539062 15.3125 17.570312 15.429688 17.570312 15.578125 C 17.570312 15.75 17.539062 15.882812 17.476562 15.96875 C 17.414062 16.054688 17.332031 16.097656 17.222656 16.097656 Z M 17.222656 16.097656 "/>
<path style=" stroke:none;fill-rule:evenodd;fill:url(#radial0);" d="M 15.675781 6.472656 C 15.675781 10.046875 12.699219 12.945312 9.023438 12.945312 C 5.351562 12.945312 2.375 10.046875 2.375 6.472656 C 2.375 2.898438 5.351562 0 9.023438 0 C 12.699219 0 15.675781 2.898438 15.675781 6.472656 Z M 15.675781 6.472656 "/>
<path style="fill:none;stroke-width:2.106795;stroke-linecap:round;stroke-linejoin:miter;stroke:rgb(100%,100%,100%);stroke-opacity:1;stroke-miterlimit:4;" d="M 26.866918 36.417435 L 26.866918 27.926217 L 9.078551 27.926217 C 7.351526 27.926217 5.945233 29.370992 5.945233 31.119929 L 5.945233 33.24907 C 5.945233 34.998007 7.351526 36.417435 9.078551 36.417435 Z M 26.866918 36.417435 " transform="matrix(0.158329,0,0,0.154111,5.066512,2.465781)"/>
<path style=" stroke:none;fill-rule:nonzero;fill:rgb(100%,100%,100%);fill-opacity:1;" d="M 6.671875 7.589844 C 6.578125 7.589844 6.503906 7.515625 6.503906 7.425781 C 6.503906 7.335938 6.578125 7.261719 6.671875 7.261719 C 6.761719 7.261719 6.835938 7.335938 6.835938 7.425781 C 6.835938 7.515625 6.761719 7.589844 6.671875 7.589844 Z M 7.332031 7.589844 C 7.242188 7.589844 7.167969 7.515625 7.167969 7.425781 C 7.167969 7.335938 7.242188 7.261719 7.332031 7.261719 C 7.425781 7.261719 7.496094 7.335938 7.496094 7.425781 C 7.496094 7.515625 7.425781 7.589844 7.332031 7.589844 Z M 7.332031 7.589844 "/>
<path style="fill:none;stroke-width:2.106795;stroke-linecap:round;stroke-linejoin:miter;stroke:rgb(100%,100%,100%);stroke-opacity:1;stroke-miterlimit:4;" d="M 26.866918 49.11624 L 26.866918 40.65037 L 9.078551 40.65037 C 7.351526 40.65037 5.945233 42.069797 5.945233 43.818734 L 5.945233 45.947875 C 5.945233 47.696813 7.351526 49.11624 9.078551 49.11624 Z M 26.866918 49.11624 " transform="matrix(0.158329,0,0,0.154111,5.066512,2.465781)"/>
<path style=" stroke:none;fill-rule:nonzero;fill:rgb(100%,100%,100%);fill-opacity:1;" d="M 6.671875 9.546875 C 6.578125 9.546875 6.503906 9.472656 6.503906 9.382812 C 6.503906 9.292969 6.578125 9.21875 6.671875 9.21875 C 6.761719 9.21875 6.835938 9.292969 6.835938 9.382812 C 6.835938 9.472656 6.761719 9.546875 6.671875 9.546875 Z M 7.332031 9.546875 C 7.242188 9.546875 7.167969 9.472656 7.167969 9.382812 C 7.167969 9.292969 7.242188 9.21875 7.332031 9.21875 C 7.425781 9.21875 7.496094 9.292969 7.496094 9.382812 C 7.496094 9.472656 7.425781 9.546875 7.332031 9.546875 Z M 7.332031 9.546875 "/>
<path style=" stroke:none;fill-rule:nonzero;fill:rgb(99.607843%,14.117647%,0%);fill-opacity:1;" d="M 9.152344 6.609375 L 11.800781 6.609375 C 12.167969 6.609375 12.464844 6.902344 12.464844 7.261719 L 12.464844 9.546875 C 12.464844 9.90625 12.167969 10.199219 11.800781 10.199219 L 9.152344 10.199219 Z M 9.152344 6.609375 "/>
<path style="fill:none;stroke-width:2.738833;stroke-linecap:round;stroke-linejoin:miter;stroke:rgb(100%,100%,100%);stroke-opacity:1;stroke-miterlimit:4;" d="M 2.589868 23.769323 C 2.047089 22.958222 1.578325 22.096427 1.183576 21.183938 C 0.394078 19.333613 -0.000670552 17.356553 -0.000670552 15.252759 C -0.000670552 13.148965 0.394078 11.171906 1.183576 9.321581 C 1.973073 7.471256 3.058633 5.8744 4.415581 4.48032 C 5.77253 3.111586 7.376197 1.996322 9.20191 1.210567 C 11.027624 0.399466 12.976696 -0.00608472 15.049127 -0.00608472 C 16.060671 -0.00608472 17.047543 0.0953029 18.009743 0.298078 C 18.996615 0.500854 19.934143 0.77967 20.847 1.18522 C 21.759856 1.565424 22.623369 2.047016 23.46221 2.604648 C 24.27638 3.136933 25.041205 3.795953 25.756688 4.505666 C 25.855375 4.277544 25.978734 4.024075 26.102093 3.795953 C 26.250123 3.542484 26.398154 3.314361 26.570857 3.111586 C 27.261667 2.123056 28.149852 1.362649 29.210739 0.830364 C 30.296299 0.272731 31.431201 -0.00608472 32.615448 -0.00608472 C 33.651663 -0.00608472 34.638535 0.196691 35.551392 0.602241 C 36.464248 0.982445 37.278418 1.540077 37.944556 2.224444 C 38.610695 2.934158 39.153474 3.745259 39.548223 4.657748 C 39.942972 5.595584 40.140346 6.584114 40.140346 7.623337 C 40.140346 8.079582 40.115674 8.510479 40.041659 8.941377 C 39.967644 9.397621 39.844285 9.803172 39.696254 10.208723 L 40.165018 10.208723 C 41.546639 10.208723 42.854244 10.462192 44.063162 10.994477 C 45.296752 11.526762 46.35764 12.261823 47.270496 13.174312 C 48.158681 14.086801 48.874163 15.176718 49.392271 16.39337 C 49.93505 17.635369 50.181768 18.953409 50.181768 20.347489 C 50.181768 21.74157 49.93505 23.059609 49.392271 24.301608 " transform="matrix(0.158329,0,0,0.154111,5.066512,2.465781)"/>
<path style=" stroke:none;fill-rule:nonzero;fill:rgb(100%,100%,100%);fill-opacity:1;" d="M 9.617188 5.394531 L 9.617188 4.261719 C 9.617188 4.171875 9.691406 4.097656 9.785156 4.097656 C 9.875 4.097656 9.949219 4.171875 9.949219 4.261719 L 9.949219 5.394531 L 10.191406 5.234375 C 10.265625 5.1875 10.367188 5.207031 10.417969 5.28125 C 10.46875 5.355469 10.449219 5.457031 10.371094 5.507812 L 9.785156 5.894531 L 9.195312 5.507812 C 9.121094 5.457031 9.097656 5.355469 9.148438 5.28125 C 9.199219 5.207031 9.304688 5.1875 9.378906 5.234375 Z M 9.617188 5.394531 "/>
<path style=" stroke:none;fill-rule:nonzero;fill:rgb(100%,100%,100%);fill-opacity:1;" d="M 7.964844 4.402344 L 7.964844 5.566406 C 7.964844 5.65625 7.890625 5.730469 7.796875 5.730469 C 7.707031 5.730469 7.632812 5.65625 7.632812 5.566406 L 7.632812 4.402344 L 7.394531 4.5625 C 7.316406 4.609375 7.214844 4.589844 7.164062 4.515625 C 7.113281 4.441406 7.132812 4.339844 7.210938 4.289062 L 7.796875 3.902344 L 8.386719 4.289062 C 8.460938 4.339844 8.484375 4.441406 8.433594 4.515625 C 8.382812 4.589844 8.277344 4.609375 8.203125 4.5625 Z M 7.964844 4.402344 "/>
<path style=" stroke:none;fill-rule:nonzero;fill:rgb(100%,100%,100%);fill-opacity:1;" d="M 9.816406 8.242188 L 9.816406 8.894531 L 10.476562 8.894531 L 10.476562 9.546875 L 11.140625 9.546875 L 11.140625 8.894531 L 11.800781 8.894531 L 11.800781 8.242188 L 11.140625 8.242188 L 11.140625 7.589844 L 10.476562 7.589844 L 10.476562 8.242188 Z M 9.816406 8.242188 "/>
</g>
</svg>
