<?xml version="1.0" encoding="UTF-8"?>
<svg width="80px" height="80px" viewBox="0 0 80 80" version="1.1" xmlns="http://www.w3.org/2000/svg" xmlns:xlink="http://www.w3.org/1999/xlink">
    <!-- Generator: Sketch 63.1 (92452) - https://sketch.com -->
    <title>Group 4</title>
    <desc>Created with Sketch.</desc>
    <defs>
        <radialGradient cx="53.235451%" cy="50%" fx="53.235451%" fy="50%" r="134.726816%" id="radialGradient-1">
            <stop stop-color="#667F9C" offset="0%"></stop>
            <stop stop-color="#3B4D67" offset="100%"></stop>
        </radialGradient>
    </defs>
    <g id="Page-1" stroke="none" stroke-width="1" fill="none" fill-rule="evenodd">
        <g id="Group-4">
            <path d="M5.89094564,106.178563 C7.31349364,106.178563 8.43992547,105.858638 9.27024114,105.218789 C10.1005568,104.57894 10.5157146,103.717376 10.5157146,102.634097 C10.5157146,101.967463 10.3728646,101.385647 10.0871646,100.888648 C9.80146461,100.391649 9.35208229,99.951195 8.73901767,99.5672856 C8.12595306,99.1833762 7.31349364,98.8411314 6.30163941,98.5405512 C5.28978519,98.2399709 4.56363099,97.9304626 4.1231768,97.6120261 C3.6827226,97.2935896 3.46249551,96.896288 3.46249551,96.4201214 C3.46249551,95.8546734 3.66635437,95.4142192 4.07407211,95.0987588 C4.48178984,94.7832983 5.05467789,94.6255681 5.79273626,94.6255681 C6.58436339,94.6255681 7.19296394,94.8175228 7.61853792,95.2014322 C8.04411191,95.5853416 8.2568989,96.1165651 8.2568989,96.7951026 L8.2568989,96.7951026 L10.5067865,96.7951026 C10.5067865,96.0451401 10.3044157,95.3621385 9.89967399,94.7460978 C9.4949323,94.1300572 8.93841248,93.6553785 8.23011452,93.3220618 C7.52181656,92.9887451 6.71530923,92.8220868 5.81059251,92.8220868 C4.44756536,92.8220868 3.33898977,93.1613555 2.48486577,93.8398931 C1.63074176,94.5184306 1.20367976,95.3814828 1.20367976,96.4290495 C1.20367976,97.6254183 1.79591209,98.5956079 2.98037673,99.3396184 C3.59939343,99.7265038 4.43268515,100.077677 5.48025187,100.393137 C6.52781859,100.708598 7.25248478,101.021082 7.65425043,101.33059 C8.05601607,101.640099 8.2568989,102.080553 8.2568989,102.651953 C8.2568989,103.175736 8.05899212,103.596846 7.66317855,103.915283 C7.26736499,104.233719 6.67662069,104.392937 5.89094564,104.392937 C4.98027684,104.392937 4.28090701,104.190567 3.79283615,103.785825 C3.30476529,103.381083 3.06072986,102.809683 3.06072986,102.071625 L3.06072986,102.071625 L0.801914114,102.071625 C0.801914114,102.88706 1.02065319,103.60131 1.45813134,104.214375 C1.89560949,104.82744 2.5086741,105.30807 3.29732519,105.656267 C4.08597627,106.004464 4.95051642,106.178563 5.89094564,106.178563 Z M15.8993743,106 L17.9349869,99.3664028 L20.006312,106 L21.7919371,106 L24.4257342,96.3397682 L22.3097684,96.3397682 L20.7741308,103.009078 L18.7653026,96.3397682 L17.1314556,96.3397682 L15.1494118,102.937653 L13.5869898,96.3397682 L11.4710241,96.3397682 L14.1137492,106 L15.8993743,106 Z M27.1041718,94.973765 C27.4970093,94.973765 27.8005656,94.8651395 28.0148406,94.6478884 C28.2291156,94.4306374 28.3362531,94.1583296 28.3362531,93.830965 C28.3362531,93.4976483 28.2291156,93.2208764 28.0148406,93.0006493 C27.8005656,92.7804222 27.4970093,92.6703086 27.1041718,92.6703086 C26.7113343,92.6703086 26.409266,92.7804222 26.1979671,93.0006493 C25.9866681,93.2208764 25.8810186,93.4976483 25.8810186,93.830965 C25.8810186,94.1583296 25.9866681,94.4306374 26.1979671,94.6478884 C26.409266,94.8651395 26.7113343,94.973765 27.1041718,94.973765 Z M28.184475,106 L28.184475,96.3397682 L26.0149405,96.3397682 L26.0149405,106 L28.184475,106 Z M34.1841753,106.178563 C35.3507837,106.178563 36.294189,105.909231 37.0143911,105.370567 C37.7345932,104.831904 38.0946943,104.12807 38.0946943,103.259065 C38.0946943,102.741234 37.9771406,102.30078 37.7420333,101.937703 C37.506926,101.574626 37.146825,101.263629 36.6617301,101.004714 C36.1766353,100.745798 35.5085139,100.522595 34.657366,100.335104 C33.806218,100.147614 33.2407701,99.9616111 32.9610221,99.7770965 C32.6812742,99.5925819 32.5414002,99.3336663 32.5414002,99.0003496 C32.5414002,98.6313204 32.6916903,98.3366923 32.9922706,98.1164652 C33.2928508,97.8962381 33.6812242,97.7861246 34.1573909,97.7861246 C34.6692701,97.7861246 35.0799639,97.9245105 35.3894723,98.2012824 C35.6989806,98.4780543 35.8537348,98.8247631 35.8537348,99.241409 L35.8537348,99.241409 L38.0232693,99.241409 C38.0232693,98.3307402 37.6676323,97.5897058 36.9563583,97.0183058 C36.2450843,96.4469057 35.3120952,96.1612057 34.1573909,96.1612057 C33.0741117,96.1612057 32.1812992,96.4409536 31.4789533,97.0004495 C30.7766074,97.5599454 30.4254345,98.2563392 30.4254345,99.0896309 C30.4254345,100.083629 30.9670741,100.84252 32.0503533,101.366303 C32.5443763,101.604386 33.1604169,101.800805 33.8984753,101.955559 C34.6365337,102.110313 35.1647811,102.288876 35.4832176,102.491247 C35.801654,102.693618 35.9608723,102.988246 35.9608723,103.375131 C35.9608723,103.726304 35.8120702,104.010516 35.514466,104.227767 C35.2168618,104.445018 34.7823597,104.553644 34.2109597,104.553644 C33.6217034,104.553644 33.1485128,104.415258 32.7913877,104.138486 C32.4342627,103.861714 32.24082,103.467388 32.2110596,102.955509 L32.2110596,102.955509 L30.104022,102.955509 C30.104022,103.532861 30.2766324,104.071525 30.6218532,104.5715 C30.9670741,105.071475 31.4491929,105.464312 32.0682096,105.750012 C32.6872263,106.035713 33.3925482,106.178563 34.1841753,106.178563 Z M43.621204,106.178563 C44.7878124,106.178563 45.7312176,105.909231 46.4514197,105.370567 C47.1716219,104.831904 47.5317229,104.12807 47.5317229,103.259065 C47.5317229,102.741234 47.4141693,102.30078 47.179062,101.937703 C46.9439547,101.574626 46.5838536,101.263629 46.0987588,101.004714 C45.613664,100.745798 44.9455426,100.522595 44.0943946,100.335104 C43.2432466,100.147614 42.6777987,99.9616111 42.3980508,99.7770965 C42.1183028,99.5925819 41.9784289,99.3336663 41.9784289,99.0003496 C41.9784289,98.6313204 42.128719,98.3366923 42.4292992,98.1164652 C42.7298794,97.8962381 43.1182529,97.7861246 43.5944196,97.7861246 C44.1062988,97.7861246 44.5169925,97.9245105 44.8265009,98.2012824 C45.1360092,98.4780543 45.2907634,98.8247631 45.2907634,99.241409 L45.2907634,99.241409 L47.4602979,99.241409 C47.4602979,98.3307402 47.1046609,97.5897058 46.3933869,97.0183058 C45.6821129,96.4469057 44.7491238,96.1612057 43.5944196,96.1612057 C42.5111404,96.1612057 41.6183278,96.4409536 40.9159819,97.0004495 C40.2136361,97.5599454 39.8624631,98.2563392 39.8624631,99.0896309 C39.8624631,100.083629 40.4041027,100.84252 41.487382,101.366303 C41.9814049,101.604386 42.5974456,101.800805 43.3355039,101.955559 C44.0735623,102.110313 44.6018097,102.288876 44.9202462,102.491247 C45.2386827,102.693618 45.3979009,102.988246 45.3979009,103.375131 C45.3979009,103.726304 45.2490988,104.010516 44.9514947,104.227767 C44.6538905,104.445018 44.2193884,104.553644 43.6479883,104.553644 C43.0587321,104.553644 42.5855414,104.415258 42.2284164,104.138486 C41.8712914,103.861714 41.6778486,103.467388 41.6480882,102.955509 L41.6480882,102.955509 L39.5410506,102.955509 C39.5410506,103.532861 39.713661,104.071525 40.0588819,104.5715 C40.4041027,105.071475 40.8862215,105.464312 41.5052382,105.750012 C42.1242549,106.035713 42.8295768,106.178563 43.621204,106.178563 Z M58.924011,106 C60.3822715,106 61.5027513,105.672635 62.2854503,105.017906 C63.0681493,104.363177 63.4594988,103.425724 63.4594988,102.205547 C63.4594988,101.467488 63.2675441,100.835079 62.8836347,100.30832 C62.4997253,99.7815606 61.9565977,99.4229476 61.2542518,99.2324809 C61.8732685,98.9705892 62.3434831,98.60156 62.6648956,98.1253933 C62.9863081,97.6492266 63.1470144,97.1135391 63.1470144,96.5183307 C63.1470144,95.3517223 62.763105,94.47379 61.9952862,93.8845337 C61.2274674,93.2952774 60.1084757,93.0006493 58.638311,93.0006493 L58.638311,93.0006493 L54.1831764,93.0006493 L54.1831764,106 L58.924011,106 Z M58.6561673,98.4735902 L56.4419922,98.4735902 L56.4419922,94.8219869 L58.638311,94.8219869 C59.4120819,94.8219869 59.9819939,94.9648369 60.3480471,95.2505369 C60.7141002,95.5362369 60.8971268,96.0004995 60.8971268,96.6433245 C60.8971268,97.2266287 60.69922,97.677499 60.3034064,97.9959355 C59.9075929,98.314372 59.3585131,98.4735902 58.6561673,98.4735902 L58.6561673,98.4735902 Z M58.9507954,104.196519 L56.4419922,104.196519 L56.4419922,100.134222 L59.1382861,100.134222 C60.5191695,100.163982 61.2096112,100.854424 61.2096112,102.205547 C61.2096112,102.830515 61.0102164,103.318586 60.6114268,103.669759 C60.2126372,104.020932 59.6590934,104.196519 58.9507954,104.196519 L58.9507954,104.196519 Z M68.4949616,106.178563 C69.4949116,106.178563 70.3401075,105.818461 71.0305492,105.098259 C71.1019742,105.514905 71.1853034,105.815485 71.2805367,106 L71.2805367,106 L73.4947118,106 L73.4947118,105.848222 C73.2506764,105.330391 73.1286587,104.636973 73.1286587,103.767969 L73.1286587,103.767969 L73.1286587,99.4110434 C73.1108024,98.3813329 72.7655816,97.5822657 72.0929961,97.0138417 C71.4204107,96.4454177 70.51867,96.1612057 69.3877741,96.1612057 C68.6437637,96.1612057 67.9696902,96.2921516 67.3655537,96.5540432 C66.7614172,96.8159349 66.2837625,97.177524 65.9325896,97.6388105 C65.5814166,98.100097 65.4058301,98.5956079 65.4058301,99.1253434 L65.4058301,99.1253434 L67.5753646,99.1253434 C67.5753646,98.74441 67.7330949,98.4304376 68.0485553,98.1834261 C68.3640157,97.9364147 68.7687574,97.8129089 69.2627804,97.8129089 C69.8341804,97.8129089 70.2597544,97.963199 70.5395023,98.2637793 C70.8192502,98.5643595 70.9591242,98.9646371 70.9591242,99.4646121 L70.9591242,99.4646121 L70.9591242,100.098509 L69.6288335,100.098509 C68.2062855,100.098509 67.1125901,100.373793 66.3477474,100.924361 C65.5829046,101.474928 65.2004833,102.265068 65.2004833,103.294778 C65.2004833,104.110213 65.5070156,104.794703 66.1200802,105.348247 C66.7331448,105.901791 67.5247719,106.178563 68.4949616,106.178563 Z M68.8967272,104.437578 C68.4324647,104.437578 68.0619475,104.314072 67.7851756,104.067061 C67.5084037,103.820049 67.3700178,103.488221 67.3700178,103.071575 C67.3700178,102.559696 67.5723886,102.163882 67.9771303,101.884134 C68.381872,101.604386 68.9860085,101.464512 69.7895398,101.464512 L69.7895398,101.464512 L70.9591242,101.464512 L70.9591242,103.28585 C70.7686575,103.637023 70.4844455,103.916771 70.1064882,104.125094 C69.7285309,104.333417 69.3252772,104.437578 68.8967272,104.437578 Z M79.3962028,106.178563 C80.0925966,106.178563 80.7413737,106.026784 81.3425341,105.723228 C81.9436946,105.419672 82.4198613,105.00749 82.7710342,104.486683 C83.1222072,103.965875 83.3096978,103.404892 83.3335061,102.803731 L83.3335061,102.803731 L81.2889654,102.803731 C81.2651571,103.267994 81.0746904,103.657855 80.7175654,103.973316 C80.3604403,104.288776 79.911058,104.446506 79.3694184,104.446506 C78.6551684,104.446506 78.1090647,104.189079 77.7311074,103.674223 C77.3531501,103.159368 77.1641714,102.378157 77.1641714,101.33059 L77.1641714,101.33059 L77.1641714,100.982393 C77.1701235,99.9467309 77.3635662,99.1744481 77.7444996,98.6655449 C78.1254329,98.1566418 78.6670725,97.9021902 79.3694184,97.9021902 C79.9170101,97.9021902 80.3678804,98.0807527 80.7220294,98.4378777 C81.0761784,98.7950027 81.2651571,99.2503371 81.2889654,99.8038809 L81.2889654,99.8038809 L83.3335061,99.8038809 C83.2977936,98.7146496 82.9183483,97.8352292 82.1951701,97.1656198 C81.471992,96.4960104 80.5360268,96.1612057 79.3872747,96.1612057 C78.0301996,96.1612057 76.9588245,96.6031479 76.1731495,97.4870323 C75.3874744,98.3709168 74.9946369,99.5479413 74.9946369,101.018106 L74.9946369,101.018106 L74.9946369,101.241309 C74.9946369,102.782899 75.3904505,103.991172 76.1820776,104.866128 C76.9737047,105.741084 78.0450798,106.178563 79.3962028,106.178563 Z M87.1458157,106 L87.1458157,102.848372 L88.1100533,101.85735 L90.9759815,106 L93.4847848,106 L89.511769,100.366353 L93.1008754,96.3397682 L90.4938628,96.3397682 L87.8243532,99.3485465 L87.1458157,100.196718 L87.1458157,92.2863992 L84.9762812,92.2863992 L84.9762812,106 L87.1458157,106 Z M97.6542194,106.178563 C98.8267799,106.178563 99.7314966,105.803581 100.36837,105.053619 L100.36837,105.053619 L100.421938,106 L102.466479,106 L102.466479,96.3397682 L100.296945,96.3397682 L100.296945,103.276922 C99.9279154,104.032836 99.2166414,104.410794 98.1631226,104.410794 C97.1453163,104.410794 96.6364131,103.797729 96.6364131,102.5716 L96.6364131,102.5716 L96.6364131,96.3397682 L94.4668786,96.3397682 L94.4668786,102.598384 C94.4668786,103.759041 94.7362104,104.645901 95.274874,105.258966 C95.8135375,105.87203 96.6066527,106.178563 97.6542194,106.178563 Z M106.841261,109.7141 L106.841261,105.133972 C107.478133,105.830366 108.326305,106.178563 109.385776,106.178563 C110.528576,106.178563 111.439245,105.733644 112.117783,104.843808 C112.79632,103.953971 113.135589,102.762066 113.135589,101.268093 L113.135589,101.268093 L113.135589,101.134172 C113.135589,99.5747257 112.800784,98.3560366 112.131175,97.4781042 C111.461565,96.6001719 110.537504,96.1612057 109.358992,96.1612057 C108.263809,96.1612057 107.39778,96.5480911 106.760907,97.321862 L106.760907,97.321862 L106.671626,96.3397682 L104.671726,96.3397682 L104.671726,109.7141 L106.841261,109.7141 Z M108.769736,104.446506 C107.876923,104.446506 107.234098,104.071525 106.841261,103.321562 L106.841261,103.321562 L106.841261,99.0360621 C107.228146,98.3039558 107.865019,97.9379027 108.751879,97.9379027 C109.466129,97.9379027 110.015209,98.2206267 110.399119,98.7860746 C110.783028,99.3515226 110.974983,100.116365 110.974983,101.080603 C110.974983,102.211499 110.780052,103.055207 110.39019,103.611726 C110.000329,104.168246 109.460177,104.446506 108.769736,104.446506 Z" id="SwissBackup" fill="#FFFFFF" fill-rule="nonzero"></path>
            <circle id="Oval" fill="url(#radialGradient-1)" cx="57" cy="42" r="42"></circle>
            <g id="Group" transform="translate(32.000000, 16.000000)">
                <g id="swiss-backup">
                    <path d="M26.8594829,36.4148714 L26.8594829,27.9396778 L9.08489862,27.9396778 C7.35255186,27.9396778 5.9482073,29.3626054 5.9482073,31.1178754 L5.9482073,33.2366736 C5.9482073,34.9919439 7.35255186,36.4148714 9.08489862,36.4148714 L26.8594829,36.4148714 Z" id="Rectangle-7" stroke="#FFFFFF" stroke-width="2.10679485" stroke-linecap="round"></path>
                    <path d="M10.1304624,33.2366736 C9.55301349,33.2366736 9.08489862,32.7623646 9.08489862,32.1772746 C9.08489862,31.5921844 9.55301349,31.1178754 10.1304624,31.1178754 C10.7079113,31.1178754 11.1760262,31.5921844 11.1760262,32.1772746 C11.1760262,32.7623646 10.7079113,33.2366736 10.1304624,33.2366736 Z M14.3127175,33.2366736 C13.7352686,33.2366736 13.2671537,32.7623646 13.2671537,32.1772746 C13.2671537,31.5921844 13.7352686,31.1178754 14.3127175,31.1178754 C14.8901664,31.1178754 15.3582813,31.5921844 15.3582813,32.1772746 C15.3582813,32.7623646 14.8901664,33.2366736 14.3127175,33.2366736 Z" id="Combined-Shape" fill="#FFFFFF" fill-rule="nonzero"></path>
                    <path d="M26.8594829,49.1276619 L26.8594829,40.6524682 L9.08489862,40.6524682 C7.35255186,40.6524682 5.9482073,42.0753958 5.9482073,43.8306658 L5.9482073,45.9494643 C5.9482073,47.7047343 7.35255186,49.1276619 9.08489862,49.1276619 L26.8594829,49.1276619 Z" id="Rectangle-7" stroke="#FFFFFF" stroke-width="2.10679485" stroke-linecap="round"></path>
                    <path d="M10.1304624,45.9494643 C9.55301349,45.9494643 9.08489862,45.4751551 9.08489862,44.8900651 C9.08489862,44.3049751 9.55301349,43.8306658 10.1304624,43.8306658 C10.7079113,43.8306658 11.1760262,44.3049751 11.1760262,44.8900651 C11.1760262,45.4751551 10.7079113,45.9494643 10.1304624,45.9494643 Z M14.3127175,45.9494643 C13.7352686,45.9494643 13.2671537,45.4751551 13.2671537,44.8900651 C13.2671537,44.3049751 13.7352686,43.8306658 14.3127175,43.8306658 C14.8901664,43.8306658 15.3582813,44.3049751 15.3582813,44.8900651 C15.3582813,45.4751551 14.8901664,45.9494643 14.3127175,45.9494643 Z" id="Combined-Shape" fill="#FFFFFF" fill-rule="nonzero"></path>
                    <path d="M25.813919,26.8802785 L42.5429395,26.8802785 C44.8527352,26.8802785 46.7251944,28.7775151 46.7251944,31.1178754 L46.7251944,45.9494643 C46.7251944,48.2898243 44.8527352,50.1870611 42.5429395,50.1870611 L25.813919,50.1870611 L25.813919,26.8802785 Z" id="Combined-Shape" fill="#FE2400" fill-rule="nonzero"></path>
                    <path d="M2.58165314,23.7690074 C2.04666318,22.9641679 1.5822841,22.1010698 1.18851194,21.1797077 C0.396166686,19.3257498 0,17.3476726 0,15.2454168 C0,13.1431609 0.396166686,11.169222 1.18851194,9.32354069 C1.98085721,7.47785943 3.05908406,5.86394709 4.42322489,4.48175526 C5.7873657,3.09956344 7.38020081,2.00706893 9.20177804,1.20423895 C11.0233553,0.401408967 12.9715152,0 15.0463162,0 C16.0592111,0 17.05167,0.0993176827 18.0237224,0.297956027 C18.9957748,0.496594374 19.9392233,0.790409185 20.8540962,1.17940928 C21.768969,1.56840937 22.6348179,2.04016836 23.4516688,2.59470043 C24.2685195,3.14923246 25.0363476,3.79065915 25.7551762,4.51899977 C25.8531986,4.27070181 25.97164,4.02654584 26.1105046,3.78652451 C26.2493695,3.54650318 26.4004845,3.31890016 26.5638546,3.10370864 C27.2663463,2.12707011 28.1526161,1.36563453 29.2226906,0.819379077 C30.2927653,0.273123628 31.4240866,0 32.6166885,0 C33.6622576,0 34.6424639,0.198635366 35.5573366,0.595912058 C36.4722096,0.993188746 37.2686273,1.539436 37.9466133,2.23467021 C38.6245994,2.92990441 39.1596288,3.74099882 39.5517173,4.66797778 C39.9438054,5.59495673 40.1398469,6.57985709 40.1398469,7.62270838 C40.1398469,8.06964466 40.1030891,8.512436 40.0295724,8.9510957 C39.9560558,9.38975535 39.8457828,9.80771727 39.6987495,10.204994 L40.164352,10.204994 C41.5529986,10.204994 42.8558559,10.4698411 44.0729637,10.9995434 C45.2900712,11.5292456 46.3519614,12.2534371 47.2586657,13.1721394 C48.16537,14.0908418 48.880104,15.1667833 49.4028883,16.3999964 C49.9256726,17.6332095 50.1870611,18.953307 50.1870611,20.3603286 C50.1870611,21.750797 49.9256726,23.062618 49.4028883,24.2958312" id="cloud" stroke="#FFFFFF" stroke-width="2.7388333" stroke-linecap="round"></path>
                    <path d="M28.7530037,18.9947511 L28.7530037,11.6533913 C28.7530037,11.0683013 29.2211185,10.5939921 29.7985676,10.5939921 C30.3760166,10.5939921 30.8441314,11.0683013 30.8441314,11.6533913 L30.8441314,18.9947511 L32.3552844,17.9739848 C32.835751,17.6494352 33.4849096,17.7809849 33.8052205,18.2678093 C34.1255316,18.7546336 33.9956997,19.4123821 33.5152333,19.7369316 L29.7985676,22.2474959 L26.0819018,19.7369316 C25.6014354,19.4123821 25.4716035,18.7546336 25.7919146,18.2678093 C26.1122258,17.7809849 26.7613841,17.6494352 27.2418507,17.9739848 L28.7530037,18.9947511 Z" id="Combined-Shape" fill="#FFFFFF" fill-rule="nonzero"></path>
                    <path d="M18.297366,12.5734976 L18.297366,20.128585 C18.297366,20.713675 17.8292512,21.1879842 17.2518023,21.1879842 C16.6743534,21.1879842 16.2062385,20.713675 16.2062385,20.128585 L16.2062385,12.5734976 L14.6950854,13.594264 C14.2146188,13.9188135 13.5654603,13.7872638 13.2451493,13.3004395 C12.9248383,12.8136152 13.05467,12.1558666 13.5351365,11.8313171 L17.2518023,9.32075271 L20.968468,11.8313171 C21.4489345,12.1558666 21.5787663,12.8136152 21.2584551,13.3004395 C20.9381442,13.7872638 20.2889857,13.9188135 19.8085192,13.594264 L18.297366,12.5734976 Z" id="Combined-Shape" fill="#FFFFFF" fill-rule="nonzero"></path>
                    <polygon id="Combined-Shape-path" fill="#FFFFFF" fill-rule="nonzero" points="29.9961742 37.4742707 29.9961742 41.7118675 34.1784291 41.7118675 34.1784291 45.9494643 38.3606843 45.9494643 38.3606843 41.7118675 42.5429395 41.7118675 42.5429395 37.4742707 38.3606843 37.4742707 38.3606843 33.2366736 34.1784291 33.2366736 34.1784291 37.4742707"></polygon>
                </g>
            </g>
        </g>
    </g>
</svg>
