<?xml version="1.0" encoding="UTF-8"?>
<svg xmlns="http://www.w3.org/2000/svg" xmlns:xlink="http://www.w3.org/1999/xlink" width="57pt" height="55pt" viewBox="0 0 57 55" version="1.1">
<defs>
<radialGradient id="radial0" gradientUnits="userSpaceOnUse" cx="0.532355" cy="0.5" fx="0.532355" fy="0.5" r="1.347268" gradientTransform="matrix(42,0,0,42,7.5,0)">
<stop offset="0" style="stop-color:rgb(40%,49.803922%,61.176471%);stop-opacity:1;"/>
<stop offset="1" style="stop-color:rgb(23.137255%,30.196078%,40.392157%);stop-opacity:1;"/>
</radialGradient>
</defs>
<g id="surface1">
<path style=" stroke:none;fill-rule:nonzero;fill:rgb(100%,100%,100%);fill-opacity:1;" d="M 2.945312 53.089844 C 3.65625 53.089844 4.21875 52.929688 4.636719 52.609375 C 5.050781 52.289062 5.257812 51.859375 5.257812 51.316406 C 5.257812 50.984375 5.1875 50.691406 5.042969 50.445312 C 4.902344 50.195312 4.675781 49.976562 4.371094 49.785156 C 4.0625 49.589844 3.65625 49.421875 3.152344 49.269531 C 2.644531 49.121094 2.28125 48.964844 2.0625 48.804688 C 1.839844 48.648438 1.730469 48.449219 1.730469 48.210938 C 1.730469 47.925781 1.832031 47.707031 2.035156 47.550781 C 2.242188 47.390625 2.527344 47.3125 2.894531 47.3125 C 3.292969 47.3125 3.597656 47.410156 3.808594 47.601562 C 4.023438 47.792969 4.128906 48.058594 4.128906 48.398438 L 5.253906 48.398438 C 5.253906 48.023438 5.152344 47.679688 4.949219 47.375 C 4.746094 47.066406 4.46875 46.828125 4.113281 46.660156 C 3.761719 46.496094 3.359375 46.410156 2.90625 46.410156 C 2.222656 46.410156 1.667969 46.582031 1.242188 46.921875 C 0.816406 47.257812 0.601562 47.691406 0.601562 48.214844 C 0.601562 48.8125 0.898438 49.296875 1.488281 49.667969 C 1.800781 49.863281 2.214844 50.039062 2.738281 50.195312 C 3.265625 50.355469 3.625 50.511719 3.828125 50.664062 C 4.027344 50.820312 4.128906 51.039062 4.128906 51.324219 C 4.128906 51.585938 4.03125 51.796875 3.832031 51.957031 C 3.632812 52.117188 3.339844 52.195312 2.945312 52.195312 C 2.488281 52.195312 2.140625 52.09375 1.894531 51.894531 C 1.652344 51.691406 1.53125 51.40625 1.53125 51.035156 L 0.402344 51.035156 C 0.402344 51.445312 0.511719 51.800781 0.730469 52.105469 C 0.949219 52.414062 1.253906 52.652344 1.648438 52.828125 C 2.042969 53.003906 2.476562 53.089844 2.945312 53.089844 Z M 7.949219 53 L 8.96875 49.683594 L 10.003906 53 L 10.894531 53 L 12.210938 48.167969 L 11.15625 48.167969 L 10.386719 51.503906 L 9.382812 48.167969 L 8.566406 48.167969 L 7.574219 51.46875 L 6.792969 48.167969 L 5.734375 48.167969 L 7.058594 53 Z M 13.550781 47.488281 C 13.75 47.488281 13.898438 47.433594 14.007812 47.324219 C 14.113281 47.214844 14.167969 47.078125 14.167969 46.914062 C 14.167969 46.75 14.113281 46.609375 14.007812 46.5 C 13.898438 46.390625 13.75 46.335938 13.550781 46.335938 C 13.355469 46.335938 13.203125 46.390625 13.097656 46.5 C 12.992188 46.609375 12.941406 46.75 12.941406 46.914062 C 12.941406 47.078125 12.992188 47.214844 13.097656 47.324219 C 13.203125 47.433594 13.355469 47.488281 13.550781 47.488281 Z M 14.09375 53 L 14.09375 48.167969 L 13.007812 48.167969 L 13.007812 53 Z M 17.09375 53.089844 C 17.675781 53.089844 18.148438 52.953125 18.507812 52.683594 C 18.867188 52.414062 19.046875 52.0625 19.046875 51.628906 C 19.046875 51.371094 18.988281 51.148438 18.871094 50.96875 C 18.753906 50.789062 18.574219 50.632812 18.332031 50.503906 C 18.089844 50.371094 17.753906 50.261719 17.328125 50.167969 C 16.902344 50.074219 16.621094 49.980469 16.480469 49.886719 C 16.339844 49.796875 16.269531 49.667969 16.269531 49.5 C 16.269531 49.316406 16.347656 49.167969 16.496094 49.058594 C 16.644531 48.949219 16.839844 48.894531 17.078125 48.894531 C 17.335938 48.894531 17.539062 48.960938 17.695312 49.101562 C 17.847656 49.238281 17.925781 49.414062 17.925781 49.621094 L 19.011719 49.621094 C 19.011719 49.164062 18.832031 48.792969 18.476562 48.507812 C 18.121094 48.222656 17.65625 48.082031 17.078125 48.082031 C 16.535156 48.082031 16.089844 48.21875 15.738281 48.5 C 15.386719 48.78125 15.210938 49.128906 15.210938 49.542969 C 15.210938 50.042969 15.484375 50.421875 16.023438 50.683594 C 16.273438 50.800781 16.582031 50.902344 16.949219 50.976562 C 17.316406 51.054688 17.582031 51.144531 17.742188 51.246094 C 17.902344 51.347656 17.980469 51.492188 17.980469 51.6875 C 17.980469 51.863281 17.90625 52.003906 17.757812 52.113281 C 17.609375 52.222656 17.390625 52.277344 17.105469 52.277344 C 16.8125 52.277344 16.574219 52.207031 16.394531 52.070312 C 16.21875 51.929688 16.121094 51.734375 16.105469 51.476562 L 15.050781 51.476562 C 15.050781 51.765625 15.136719 52.035156 15.3125 52.285156 C 15.484375 52.535156 15.722656 52.730469 16.035156 52.875 C 16.34375 53.019531 16.695312 53.089844 17.09375 53.089844 Z M 21.8125 53.089844 C 22.394531 53.089844 22.867188 52.953125 23.226562 52.683594 C 23.585938 52.414062 23.765625 52.0625 23.765625 51.628906 C 23.765625 51.371094 23.707031 51.148438 23.589844 50.96875 C 23.472656 50.789062 23.292969 50.632812 23.050781 50.503906 C 22.808594 50.371094 22.472656 50.261719 22.046875 50.167969 C 21.621094 50.074219 21.339844 49.980469 21.199219 49.886719 C 21.058594 49.796875 20.988281 49.667969 20.988281 49.5 C 20.988281 49.316406 21.0625 49.167969 21.214844 49.058594 C 21.363281 48.949219 21.558594 48.894531 21.796875 48.894531 C 22.054688 48.894531 22.257812 48.960938 22.414062 49.101562 C 22.566406 49.238281 22.644531 49.414062 22.644531 49.621094 L 23.730469 49.621094 C 23.730469 49.164062 23.550781 48.792969 23.195312 48.507812 C 22.839844 48.222656 22.375 48.082031 21.796875 48.082031 C 21.253906 48.082031 20.808594 48.21875 20.457031 48.5 C 20.105469 48.78125 19.929688 49.128906 19.929688 49.542969 C 19.929688 50.042969 20.203125 50.421875 20.742188 50.683594 C 20.992188 50.800781 21.296875 50.902344 21.667969 50.976562 C 22.035156 51.054688 22.300781 51.144531 22.460938 51.246094 C 22.621094 51.347656 22.699219 51.492188 22.699219 51.6875 C 22.699219 51.863281 22.625 52.003906 22.476562 52.113281 C 22.328125 52.222656 22.109375 52.277344 21.824219 52.277344 C 21.53125 52.277344 21.292969 52.207031 21.113281 52.070312 C 20.9375 51.929688 20.839844 51.734375 20.824219 51.476562 L 19.769531 51.476562 C 19.769531 51.765625 19.855469 52.035156 20.03125 52.285156 C 20.203125 52.535156 20.441406 52.730469 20.753906 52.875 C 21.0625 53.019531 21.414062 53.089844 21.8125 53.089844 Z M 29.460938 53 C 30.191406 53 30.75 52.835938 31.144531 52.507812 C 31.535156 52.179688 31.730469 51.710938 31.730469 51.101562 C 31.730469 50.734375 31.632812 50.417969 31.441406 50.152344 C 31.25 49.890625 30.976562 49.710938 30.628906 49.617188 C 30.9375 49.484375 31.171875 49.300781 31.332031 49.0625 C 31.492188 48.824219 31.574219 48.558594 31.574219 48.257812 C 31.574219 47.675781 31.382812 47.238281 30.996094 46.941406 C 30.613281 46.648438 30.054688 46.5 29.320312 46.5 L 27.089844 46.5 L 27.089844 53 Z M 29.328125 49.238281 L 28.222656 49.238281 L 28.222656 47.410156 L 29.320312 47.410156 C 29.707031 47.410156 29.992188 47.480469 30.175781 47.625 C 30.355469 47.769531 30.449219 48 30.449219 48.320312 C 30.449219 48.613281 30.351562 48.839844 30.152344 48.996094 C 29.953125 49.15625 29.679688 49.238281 29.328125 49.238281 Z M 29.476562 52.097656 L 28.222656 52.097656 L 28.222656 50.066406 L 29.570312 50.066406 C 30.257812 50.082031 30.605469 50.425781 30.605469 51.101562 C 30.605469 51.414062 30.503906 51.660156 30.304688 51.835938 C 30.105469 52.011719 29.828125 52.097656 29.476562 52.097656 Z M 34.246094 53.089844 C 34.746094 53.089844 35.171875 52.910156 35.515625 52.550781 C 35.550781 52.757812 35.59375 52.90625 35.640625 53 L 36.746094 53 L 36.746094 52.925781 C 36.625 52.664062 36.5625 52.320312 36.5625 51.882812 L 36.5625 49.707031 C 36.554688 49.191406 36.382812 48.792969 36.046875 48.507812 C 35.710938 48.222656 35.257812 48.082031 34.695312 48.082031 C 34.320312 48.082031 33.984375 48.144531 33.683594 48.277344 C 33.378906 48.40625 33.140625 48.589844 32.964844 48.820312 C 32.789062 49.050781 32.703125 49.296875 32.703125 49.5625 L 33.789062 49.5625 C 33.789062 49.371094 33.867188 49.214844 34.023438 49.089844 C 34.183594 48.96875 34.382812 48.90625 34.632812 48.90625 C 34.917969 48.90625 35.128906 48.980469 35.269531 49.132812 C 35.410156 49.28125 35.480469 49.480469 35.480469 49.730469 L 35.480469 50.050781 L 34.8125 50.050781 C 34.101562 50.050781 33.554688 50.1875 33.175781 50.460938 C 32.792969 50.738281 32.601562 51.132812 32.601562 51.648438 C 32.601562 52.054688 32.753906 52.398438 33.058594 52.675781 C 33.367188 52.949219 33.761719 53.089844 34.246094 53.089844 Z M 34.449219 52.21875 C 34.214844 52.21875 34.03125 52.15625 33.894531 52.035156 C 33.753906 51.910156 33.683594 51.742188 33.683594 51.535156 C 33.683594 51.28125 33.785156 51.082031 33.988281 50.941406 C 34.191406 50.800781 34.492188 50.730469 34.894531 50.730469 L 35.480469 50.730469 L 35.480469 51.644531 C 35.382812 51.820312 35.242188 51.957031 35.054688 52.0625 C 34.863281 52.167969 34.664062 52.21875 34.449219 52.21875 Z M 39.699219 53.089844 C 40.046875 53.089844 40.371094 53.011719 40.671875 52.863281 C 40.972656 52.710938 41.210938 52.503906 41.386719 52.242188 C 41.5625 51.984375 41.65625 51.703125 41.667969 51.402344 L 40.644531 51.402344 C 40.632812 51.632812 40.539062 51.828125 40.359375 51.988281 C 40.179688 52.144531 39.957031 52.222656 39.683594 52.222656 C 39.328125 52.222656 39.054688 52.09375 38.867188 51.835938 C 38.675781 51.578125 38.582031 51.1875 38.582031 50.664062 L 38.582031 50.492188 C 38.585938 49.972656 38.683594 49.585938 38.871094 49.332031 C 39.0625 49.078125 39.332031 48.949219 39.683594 48.949219 C 39.957031 48.949219 40.183594 49.039062 40.359375 49.21875 C 40.539062 49.398438 40.632812 49.625 40.644531 49.902344 L 41.667969 49.902344 C 41.648438 49.355469 41.460938 48.917969 41.097656 48.582031 C 40.734375 48.246094 40.269531 48.082031 39.695312 48.082031 C 39.015625 48.082031 38.480469 48.300781 38.085938 48.742188 C 37.695312 49.183594 37.496094 49.773438 37.496094 50.507812 L 37.496094 50.621094 C 37.496094 51.390625 37.695312 51.996094 38.089844 52.433594 C 38.488281 52.871094 39.023438 53.089844 39.699219 53.089844 Z M 43.574219 53 L 43.574219 51.425781 L 44.054688 50.929688 L 45.488281 53 L 46.742188 53 L 44.757812 50.183594 L 46.550781 48.167969 L 45.246094 48.167969 L 43.914062 49.675781 L 43.574219 50.097656 L 43.574219 46.144531 L 42.488281 46.144531 L 42.488281 53 Z M 48.828125 53.089844 C 49.414062 53.089844 49.867188 52.902344 50.183594 52.527344 L 50.210938 53 L 51.234375 53 L 51.234375 48.167969 L 50.148438 48.167969 L 50.148438 51.636719 C 49.964844 52.015625 49.609375 52.207031 49.082031 52.207031 C 48.574219 52.207031 48.316406 51.898438 48.316406 51.285156 L 48.316406 48.167969 L 47.234375 48.167969 L 47.234375 51.300781 C 47.234375 51.878906 47.367188 52.324219 47.636719 52.628906 C 47.90625 52.9375 48.304688 53.089844 48.828125 53.089844 Z M 53.421875 54.855469 L 53.421875 52.566406 C 53.738281 52.914062 54.164062 53.089844 54.691406 53.089844 C 55.265625 53.089844 55.71875 52.867188 56.058594 52.421875 C 56.398438 51.976562 56.566406 51.382812 56.566406 50.632812 L 56.566406 50.566406 C 56.566406 49.789062 56.402344 49.179688 56.066406 48.738281 C 55.730469 48.300781 55.269531 48.082031 54.679688 48.082031 C 54.132812 48.082031 53.699219 48.273438 53.378906 48.660156 L 53.335938 48.167969 L 52.335938 48.167969 L 52.335938 54.855469 Z M 54.386719 52.222656 C 53.9375 52.222656 53.617188 52.035156 53.421875 51.660156 L 53.421875 49.519531 C 53.613281 49.152344 53.933594 48.96875 54.375 48.96875 C 54.734375 48.96875 55.007812 49.109375 55.199219 49.394531 C 55.390625 49.675781 55.488281 50.058594 55.488281 50.539062 C 55.488281 51.105469 55.390625 51.527344 55.195312 51.804688 C 55 52.085938 54.730469 52.222656 54.386719 52.222656 Z M 54.386719 52.222656 "/>
<path style=" stroke:none;fill-rule:evenodd;fill:url(#radial0);" d="M 49.5 21 C 49.5 32.597656 40.097656 42 28.5 42 C 16.902344 42 7.5 32.597656 7.5 21 C 7.5 9.402344 16.902344 0 28.5 0 C 40.097656 0 49.5 9.402344 49.5 21 Z M 49.5 21 "/>
<path style="fill:none;stroke-width:2.106795;stroke-linecap:round;stroke-linejoin:miter;stroke:rgb(100%,100%,100%);stroke-opacity:1;stroke-miterlimit:4;" d="M 26.859375 36.414062 L 26.859375 27.9375 L 9.085938 27.9375 C 7.351562 27.9375 5.945312 29.359375 5.945312 31.117188 L 5.945312 33.234375 C 5.945312 34.992188 7.351562 36.414062 9.085938 36.414062 Z M 26.859375 36.414062 " transform="matrix(0.5,0,0,0.5,16,8)"/>
<path style=" stroke:none;fill-rule:nonzero;fill:rgb(100%,100%,100%);fill-opacity:1;" d="M 21.066406 24.617188 C 20.777344 24.617188 20.542969 24.382812 20.542969 24.089844 C 20.542969 23.796875 20.777344 23.558594 21.066406 23.558594 C 21.355469 23.558594 21.589844 23.796875 21.589844 24.089844 C 21.589844 24.382812 21.355469 24.617188 21.066406 24.617188 Z M 23.15625 24.617188 C 22.867188 24.617188 22.632812 24.382812 22.632812 24.089844 C 22.632812 23.796875 22.867188 23.558594 23.15625 23.558594 C 23.445312 23.558594 23.679688 23.796875 23.679688 24.089844 C 23.679688 24.382812 23.445312 24.617188 23.15625 24.617188 Z M 23.15625 24.617188 "/>
<path style="fill:none;stroke-width:2.106795;stroke-linecap:round;stroke-linejoin:miter;stroke:rgb(100%,100%,100%);stroke-opacity:1;stroke-miterlimit:4;" d="M 26.859375 49.125 L 26.859375 40.65625 L 9.085938 40.65625 C 7.351562 40.65625 5.945312 42.078125 5.945312 43.828125 L 5.945312 45.953125 C 5.945312 47.703125 7.351562 49.125 9.085938 49.125 Z M 26.859375 49.125 " transform="matrix(0.5,0,0,0.5,16,8)"/>
<path style=" stroke:none;fill-rule:nonzero;fill:rgb(100%,100%,100%);fill-opacity:1;" d="M 21.066406 30.976562 C 20.777344 30.976562 20.542969 30.738281 20.542969 30.445312 C 20.542969 30.152344 20.777344 29.914062 21.066406 29.914062 C 21.355469 29.914062 21.589844 30.152344 21.589844 30.445312 C 21.589844 30.738281 21.355469 30.976562 21.066406 30.976562 Z M 23.15625 30.976562 C 22.867188 30.976562 22.632812 30.738281 22.632812 30.445312 C 22.632812 30.152344 22.867188 29.914062 23.15625 29.914062 C 23.445312 29.914062 23.679688 30.152344 23.679688 30.445312 C 23.679688 30.738281 23.445312 30.976562 23.15625 30.976562 Z M 23.15625 30.976562 "/>
<path style=" stroke:none;fill-rule:nonzero;fill:rgb(99.607843%,14.117647%,0%);fill-opacity:1;" d="M 28.90625 21.441406 L 37.269531 21.441406 C 38.425781 21.441406 39.363281 22.390625 39.363281 23.558594 L 39.363281 30.976562 C 39.363281 32.144531 38.425781 33.09375 37.269531 33.09375 L 28.90625 33.09375 Z M 28.90625 21.441406 "/>
<path style="fill:none;stroke-width:2.738833;stroke-linecap:round;stroke-linejoin:miter;stroke:rgb(100%,100%,100%);stroke-opacity:1;stroke-miterlimit:4;" d="M 2.578125 23.765625 C 2.046875 22.960938 1.585938 22.101562 1.1875 21.179688 C 0.398438 19.328125 0 17.351562 0 15.242188 C 0 13.140625 0.398438 11.171875 1.1875 9.320312 C 1.984375 7.476562 3.0625 5.867188 4.421875 4.484375 C 5.789062 3.101562 7.382812 2.007812 9.203125 1.203125 C 11.023438 0.398438 12.96875 0 15.046875 0 C 16.0625 0 17.054688 0.101562 18.023438 0.296875 C 18.992188 0.5 19.9375 0.789062 20.851562 1.179688 C 21.765625 1.570312 22.632812 2.039062 23.453125 2.59375 C 24.265625 3.148438 25.039062 3.789062 25.757812 4.515625 C 25.851562 4.273438 25.96875 4.023438 26.109375 3.789062 C 26.25 3.546875 26.398438 3.320312 26.5625 3.101562 C 27.265625 2.125 28.15625 1.367188 29.226562 0.820312 C 30.289062 0.273438 31.421875 0 32.617188 0 C 33.664062 0 34.640625 0.195312 35.554688 0.59375 C 36.46875 0.992188 37.265625 1.539062 37.945312 2.234375 C 38.625 2.929688 39.15625 3.742188 39.554688 4.671875 C 39.945312 5.59375 40.140625 6.578125 40.140625 7.625 C 40.140625 8.070312 40.101562 8.515625 40.03125 8.953125 C 39.953125 9.390625 39.84375 9.804688 39.695312 10.203125 L 40.164062 10.203125 C 41.554688 10.203125 42.859375 10.46875 44.070312 11 C 45.289062 11.53125 46.351562 12.25 47.257812 13.171875 C 48.164062 14.09375 48.882812 15.164062 49.40625 16.398438 C 49.921875 17.632812 50.1875 18.953125 50.1875 20.359375 C 50.1875 21.75 49.921875 23.0625 49.40625 24.296875 " transform="matrix(0.5,0,0,0.5,16,8)"/>
<path style=" stroke:none;fill-rule:nonzero;fill:rgb(100%,100%,100%);fill-opacity:1;" d="M 30.375 17.496094 L 30.375 13.828125 C 30.375 13.535156 30.609375 13.296875 30.898438 13.296875 C 31.1875 13.296875 31.421875 13.535156 31.421875 13.828125 L 31.421875 17.496094 L 32.175781 16.988281 C 32.417969 16.824219 32.742188 16.890625 32.902344 17.132812 C 33.0625 17.378906 32.996094 17.707031 32.757812 17.867188 L 30.898438 19.125 L 29.039062 17.867188 C 28.800781 17.707031 28.734375 17.378906 28.894531 17.132812 C 29.054688 16.890625 29.378906 16.824219 29.621094 16.988281 Z M 30.375 17.496094 "/>
<path style=" stroke:none;fill-rule:nonzero;fill:rgb(100%,100%,100%);fill-opacity:1;" d="M 25.148438 14.285156 L 25.148438 18.0625 C 25.148438 18.355469 24.914062 18.59375 24.625 18.59375 C 24.335938 18.59375 24.101562 18.355469 24.101562 18.0625 L 24.101562 14.285156 L 23.347656 14.796875 C 23.105469 14.960938 22.78125 14.894531 22.621094 14.648438 C 22.460938 14.40625 22.527344 14.078125 22.765625 13.914062 L 24.625 12.660156 L 26.484375 13.914062 C 26.722656 14.078125 26.789062 14.40625 26.628906 14.648438 C 26.46875 14.894531 26.144531 14.960938 25.902344 14.796875 Z M 25.148438 14.285156 "/>
<path style=" stroke:none;fill-rule:nonzero;fill:rgb(100%,100%,100%);fill-opacity:1;" d="M 31 26.738281 L 31 28.855469 L 33.089844 28.855469 L 33.089844 30.976562 L 35.179688 30.976562 L 35.179688 28.855469 L 37.269531 28.855469 L 37.269531 26.738281 L 35.179688 26.738281 L 35.179688 24.617188 L 33.089844 24.617188 L 33.089844 26.738281 Z M 31 26.738281 "/>
</g>
</svg>
